ALL MY POSTS ARE SEEDBOX SUPPORTED!!!

*******************************************************************************
                                 Booley (2010)
*******************************************************************************

-------------------------------------------------------------------------------
                              General Information
-------------------------------------------------------------------------------
Type.................: Movie



Video Format.........: AVI
Video Bitrate........: 2760
Resolution...........: 20 x 404
Color................: 8 bit
FPS..................: 29.97
Source...............: DVD 16x9
Original Format......: NTSC
Genre................: Horror
IMDb Rating..........: 5.1
Movie Information....: http://www.imdb.com/title/tt1646961

-------------------------------------------------------------------------------
                               Post Information
-------------------------------------------------------------------------------
Posted by............: RadioResearch
Posted on............: 2/3/2013

-------------------------------------------------------------------------------
                                 Release Notes
-------------------------------------------------------------------------------
Angus Booley has been pushed around his whole life, but recently it seems it has 
been happening more than usual. He suspects his wife of adultery, his job gets 
outsourced to India, and his daughter Rose is being bullied by the most popular 
girl in school. Finding salvation in a flamboyant self-help guru, Angus begins 
to turn his life around...by murdering all those who get in his way. He is the 
hammer...and they are the nails. 

Enjoy!

RadioResearch

1.  Please vote on IMDB and rate the movies I post.
2.  Please seed as much as you can; don't leech and run.
3.  A thank you now and then would be greatly appreciated.



General
Complete name                            : G:AVIBooley 
(2010)BOOLEY_Title1.avi
Format                                   : AVI
Format/Info                              : Audio Video Interleave
Format profile                           : OpenDML
File size                                : 1.87 GiB
Duration                                 : 1h 37mn
Overall bit rate                         : 2 760 Kbps
Movie name                               : BOOLEY
Writing application                      : MEncoder 5.0
Writing library                          : [= DigiArty videodll! =]

Video
ID                                       : 0
Format                                   : MPEG-4 Visual
Format profile                           : Simple@L1
Format settings, BVOP                    : No
Format settings, QPel                    : No
Format settings, GMC                     : No warppoints
Format settings, Matrix                  : Default (H.263)
Codec ID                                 : DX50
Codec ID/Hint                            : DivX 5
Duration                                 : 1h 37mn
Bit rate                                 : 2 562 Kbps
Width                                    : 720 pixels
Height                                   : 404 pixels
Display aspect ratio                     : 16:9
Frame rate                               : 29.970 fps
Color space                              : YUV
Chroma subsampling                       : 4:2:0
Bit depth                                : 8 bits
Scan type                                : Progressive
Compression mode                         : Lossy
Bits/(Pixel*Frame)                       : 0.294
Stream size                              : 1.74 GiB (93%)
Writing library                          : Lavc54.71.100

Audio
ID                                       : 1
Format                                   : AC-3
Format/Info                              : Audio Coding 3
Mode extension                           : CM (complete main)
Format settings, Endianness              : Big
Codec ID                                 : 2000
Duration                                 : 1h 37mn
Bit rate mode                            : Constant
Bit rate                                 : 192 Kbps
Channel(s)                               : 2 channels
Channel positions                        : Front: L R
Sampling rate                            : 48.0 KHz
Bit depth                                : 16 bits
Compression mode                         : Lossy
Stream size                              : 133 MiB (7%)
Alignment                                : Split accross interleaves
Interleave, duration                     : 500 ms (14.98 video frames)
Interleave, preload duration             : 500 ms




-------------------------------------------------------------------------------
Generated with Cool NFO Creator - http://fly.to/coolbeans
-------------------------------------------------------------------------------
